<?xml version="1.0" encoding="UTF-8"?>
<svg xmlns="http://www.w3.org/2000/svg" xmlns:xlink="http://www.w3.org/1999/xlink" width="30pt" height="30pt" viewBox="0 0 30 30" version="1.1">
<g id="surface1">
<path style=" stroke:none;fill-rule:nonzero;fill:rgb(21.960784%,50.196078%,100%);fill-opacity:1;" d="M 16.875 11.25 C 16.875 12.285156 16.035156 13.125 15 13.125 C 13.964844 13.125 13.125 12.285156 13.125 11.25 C 13.125 10.214844 13.964844 9.375 15 9.375 C 16.035156 9.375 16.875 10.214844 16.875 11.25 Z M 16.875 11.25 "/>
<path style=" stroke:none;fill-rule:nonzero;fill:rgb(21.960784%,50.196078%,100%);fill-opacity:1;" d="M 15 1.875 C 9.832031 1.875 5.625 5.898438 5.625 10.839844 C 5.625 13.195312 6.699219 16.324219 8.8125 20.144531 C 10.511719 23.210938 12.480469 25.984375 13.5 27.363281 C 13.851562 27.839844 14.410156 28.125 15 28.125 C 15.59375 28.125 16.152344 27.839844 16.503906 27.363281 C 17.523438 25.984375 19.492188 23.210938 21.191406 20.144531 C 23.300781 16.324219 24.375 13.195312 24.375 10.839844 C 24.375 5.898438 20.167969 1.875 15 1.875 Z M 15 15 C 12.929688 15 11.25 13.320312 11.25 11.25 C 11.25 9.179688 12.929688 7.5 15 7.5 C 17.070312 7.5 18.75 9.179688 18.75 11.25 C 18.746094 13.320312 17.070312 14.996094 15 15 Z M 15 15 "/>
</g>
</svg>
